<?xml version="1.0" standalone="no"?>
<!DOCTYPE svg PUBLIC "-//W3C//DTD SVG 20010904//EN"
 "http://www.w3.org/TR/2001/REC-SVG-20010904/DTD/svg10.dtd">
<svg version="1.0" xmlns="http://www.w3.org/2000/svg"
 width="500.000000pt" height="500.000000pt" viewBox="0 0 500.000000 500.000000"
 preserveAspectRatio="xMidYMid meet">

<g transform="translate(0.000000,500.000000) scale(0.100000,-0.100000)"
fill="#000000" stroke="none">
<path d="M0 2500 l0 -2500 2500 0 2500 0 0 2500 0 2500 -2500 0 -2500 0 0
-2500z m3403 1991 c33 -13 42 -40 77 -236 17 -93 40 -190 51 -214 23 -53 24
-94 3 -112 -10 -8 -52 -16 -103 -19 l-86 -5 -7 -55 c-8 -57 -10 -72 -78 -510
-72 -461 -146 -832 -201 -1000 -44 -137 -120 -286 -177 -350 -118 -132 -262
-154 -386 -58 -22 17 -88 85 -146 150 -237 268 -259 283 -322 206 -53 -65
-112 -159 -172 -277 -30 -58 -68 -125 -85 -148 -51 -70 -119 -77 -172 -17 -53
60 -108 229 -134 405 -20 143 -20 225 1 233 52 20 78 -8 89 -94 10 -78 79
-359 102 -411 l19 -44 16 25 c8 14 55 96 104 183 221 394 313 402 605 57 167
-197 220 -232 303 -200 102 39 215 236 272 479 59 249 151 755 214 1178 41
278 43 259 -31 267 -39 5 -67 14 -80 27 -32 32 -26 47 38 97 12 10 53 93 99
202 86 205 98 228 128 240 28 11 31 12 59 1z m-2233 -2842 c25 -6 55 -20 67
-31 45 -42 38 -138 -13 -175 l-24 -18 55 -80 c30 -44 55 -83 55 -87 0 -5 -27
-8 -59 -8 l-59 0 -44 75 c-23 41 -49 75 -55 75 -9 0 -13 -22 -13 -75 l0 -75
-55 0 -55 0 0 205 0 205 78 0 c42 0 97 -5 122 -11z m460 -194 l0 -205 -55 0
-55 0 0 205 0 205 55 0 55 0 0 -205z m483 194 c41 -11 43 -17 25 -66 -10 -28
-16 -33 -33 -27 -11 4 -42 7 -70 8 -69 1 -66 -20 7 -59 74 -40 105 -69 111
-108 16 -109 -76 -172 -215 -147 l-68 12 0 53 0 54 36 -15 c20 -8 57 -14 82
-12 39 3 47 6 47 23 0 14 -16 28 -55 48 -74 37 -100 66 -106 113 -9 78 51 134
145 134 31 0 73 -5 94 -11z m515 -36 l3 -43 -65 0 c-68 0 -81 -7 -71 -40 5
-15 17 -20 63 -22 l57 -3 0 -45 0 -45 -58 0 c-50 0 -58 -3 -62 -20 -10 -52 -6
-55 67 -55 l68 0 0 -45 0 -45 -125 0 -125 0 0 198 c0 109 3 202 7 206 4 3 59
5 122 4 l116 -3 3 -42z m662 -91 c0 -159 8 -182 64 -182 55 0 61 16 64 177 l4
144 51 -3 52 -3 0 -150 c0 -125 -3 -155 -18 -183 -51 -93 -210 -107 -288 -26
l-34 35 -3 165 -3 164 55 0 56 0 0 -138z m730 112 c68 -39 77 -149 16 -210
-25 -25 -43 -33 -89 -38 l-57 -7 0 -65 0 -64 -55 0 -55 0 0 206 0 206 103 -4
c80 -2 110 -8 137 -24z"/>
<path d="M3342 4243 c-15 -27 -82 -196 -82 -205 0 -4 32 -8 70 -8 39 0 70 3
70 8 0 16 -40 215 -44 219 -2 3 -9 -4 -14 -14z"/>
<path d="M1080 1525 c0 -48 11 -56 49 -35 45 23 31 80 -19 80 -29 0 -30 -2
-30 -45z"/>
<path d="M3897 1563 c-4 -3 -7 -24 -7 -45 0 -38 1 -39 33 -36 27 3 32 7 35 33
5 38 -38 72 -61 48z"/>
</g>
</svg>
